<svg xmlns="http://www.w3.org/2000/svg" viewBox="0 0 300 300"><defs><style>.cls-1{fill:#1a1a1a;}</style></defs><title>Prancheta 1</title><g id="Camada_2" data-name="Camada 2"><path class="cls-1" d="M150.3,197.54s32.69,12.66,50.26,52.3c13.07,24.1,18.38,9.39,18.38,9.39s6.95-11,9.81-11.85,24.11,10.22,24.92,13.49-6.12,38-23.29,39.22S196.47,276,196.47,276s-13.48-22.89-18-36.78S170.73,209.38,150.3,197.54Z"/><path class="cls-1" d="M243,249.14s-7.72-34.62,15.6-43.8,28.32-45.61,19.43-61.41-5.23-48.83,6.82-59.59c2.77,33.53-9,29.08,4.45,61.17,12.5,29.83,15.5,55.63.71,67.35C269.12,229.41,257.38,208,243,249.14Z"/><path class="cls-1" d="M150,160.34s-28.2-30.6-53.7,17.7C73.52,221.18,0,93.74,0,93.74s30.9,100.5,87.3,101.1c0,0,39.53.21,40.5-24.9C129,138.74,132.9,164.84,150,160.34Z"/><path class="cls-1" d="M150,160.34s28.2-30.6,53.7,17.7c22.78,43.14,96.3-84.3,96.3-84.3s-30.9,100.5-87.3,101.1c0,0-39.53.21-40.5-24.9C171,138.74,167.1,164.84,150,160.34Z"/><path class="cls-1" d="M207.11,58.11c-3.24-1.71-17.78,5.13-17.78,5.13V25.65C189.33-1.69,169.94,0,169.94,0H130.06s-19.39-1.71-19.39,25.63V63.24S96.13,56.4,92.89,58.11s0,20.5,24.24,20.5h65.74C207.11,78.61,210.34,59.82,207.11,58.11Z"/></g></svg>