<svg id="Camada_1" data-name="Camada 1" xmlns="http://www.w3.org/2000/svg" viewBox="0 0 200 170"><defs><style>.cls-1{fill:#140a0a;}.cls-2{fill:#fff;}.cls-3{fill:#ffc8c8;}.cls-4{fill:#110808;}</style></defs><title>logo</title><path class="cls-1" d="M104,55.35c-22.78,0-44.26,45.08-44.26,68C59.74,157.86,88,170,104,170s44.26-12.14,44.26-46.65C148.26,100.43,126.78,55.35,104,55.35Z"/><path class="cls-2" d="M100,53.34c-22.78,0-44.26,45.08-44.26,68C55.74,155.85,84,168,100,168s44.26-12.14,44.26-46.65C144.26,98.42,122.78,53.34,100,53.34Z"/><path class="cls-3" d="M130.78,78.92c7.29,22,15.19,67.54-33.25,89,.85.06,1.68.1,2.47.1,16,0,44.26-12.14,44.26-46.65C144.26,109.93,138.94,93,130.78,78.92Z"/><path class="cls-4" d="M100,113S81.2,92.43,64.2,124.82C49,153.75,0,68.29,0,68.29s20.6,67.4,58.2,67.8c0,0,26.35.14,27-16.7C86,98.47,88.6,116,100,113Z"/><path class="cls-4" d="M100,113s18.8-20.52,35.8,11.87C151,153.75,200,68.29,200,68.29s-20.6,67.4-58.2,67.8c0,0-26.35.14-27-16.7C114,98.47,111.4,116,100,113Z"/><path class="cls-4" d="M149,50.61C146.18,49.14,133.71,55,133.71,55V22.62C133.71-.95,117.09.51,117.09.51H82.91S66.29-1,66.29,22.61V55s-12.46-5.9-15.24-4.43,0,17.68,20.78,17.68h56.35C149,68.29,151.72,52.09,149,50.61Z"/></svg>