<svg id="Camada_1" data-name="Camada 1" xmlns="http://www.w3.org/2000/svg" viewBox="0 0 50 50"><defs><style>.cls-1{fill:#f5e7bc;}.cls-2{fill:#efd175;}.cls-3{fill:#3fb4bf;}.cls-4{fill:#24d1f3;}.cls-5{fill:#140a0a;}</style></defs><title>menu_close</title><polygon class="cls-1" points="50 50 50 0 0 50 50 50"/><polygon class="cls-2" points="0 50 50 0 0 0 0 50"/><polygon class="cls-3" points="50 50 50 0 0 50 50 50"/><polygon class="cls-4" points="0 50 50 0 0 0 0 50"/><path class="cls-5" d="M48,2V48H2V2H48m2-2H0V50H50V0Z"/><polygon class="cls-5" points="39 16.33 15.67 38 11 33.67 34.33 12 39 16.33"/><polygon class="cls-5" points="11 16.33 34.33 38 39 33.67 15.67 12 11 16.33"/></svg>